<?xml version="1.0" encoding="UTF-8"?>
<svg version="1.1" xmlns="http://www.w3.org/2000/svg" width="500" height="356">
<path d="M0 0 C0.99 0 1.98 0 3 0 C2.35571752 3.11968359 1.27757123 5.55873453 -0.28515625 8.328125 C-0.73310547 9.12734375 -1.18105469 9.9265625 -1.64257812 10.75 C-2.34543945 11.9875 -2.34543945 11.9875 -3.0625 13.25 C-3.77116211 14.51070312 -3.77116211 14.51070312 -4.49414062 15.796875 C-5.65857961 17.86698876 -6.8273145 19.93455014 -8 22 C-7.34 21.67 -6.68 21.34 -6 21 C-4.00039988 20.960008 -1.99952758 20.95653201 0 21 C-0.125 23.75 -0.125 23.75 -1 27 C-4.0625 29.375 -4.0625 29.375 -7 31 C-3.28512088 29.3283044 -0.25202606 27.44583565 2.875 24.875 C6.92570076 21.7157662 9.91556332 21.18158702 15 21 C16 24 16 24 15 27 C15.85271484 26.33291016 15.85271484 26.33291016 16.72265625 25.65234375 C22.95429789 21.08524745 22.95429789 21.08524745 26.15625 20.82421875 C28.0625 21.125 28.0625 21.125 31 22 C30.505 22.928125 30.505 22.928125 30 23.875 C28.85806765 25.91018344 28.85806765 25.91018344 29 28 C31.74801432 25.62671491 32.71082173 23.3518635 34 20 C34.66 19.34 35.32 18.68 36 18 C37.32 18 38.64 18 40 18 C40 18.99 40 19.98 40 21 C40.66 21 41.32 21 42 21 C41.5020163 24.73487777 41.12508244 26.81237635 39 30 C43.68001193 28.68374664 46.56732709 25.89746854 50.03515625 22.65625 C51.9761532 21.02010147 53.64161906 19.92804443 56 19 C58.75 19.375 58.75 19.375 61 20 C61.495 21.485 61.495 21.485 62 23 C60.59554165 25.2636564 58.8032087 27.0208685 57 29 C57.33 29.33 57.66 29.66 58 30 C58.9075 29.175 59.815 28.35 60.75 27.5 C63.53624497 24.96705003 63.87258261 25 68 25 C66.47453786 29.14851289 63.84044322 30.70457684 60.25 33.125 C54.38347557 37.26505024 51.29246102 41.71139946 48 48 C44.51612903 52.74193548 44.51612903 52.74193548 42 54 C40.00039988 54.039992 37.99952758 54.04346799 36 54 C36.29070532 48.04054099 38.83427821 44.95255053 43 41 C45.11038623 39.34427507 47.24659527 37.77526728 49.4609375 36.26171875 C50.22277344 35.63716797 50.22277344 35.63716797 51 35 C51 34.34 51 33.68 51 33 C49.68 33 48.36 33 47 33 C48.1728427 29.48147191 48.83086877 29.25274673 51.9375 27.5 C54.96692226 25.78461026 55.99489922 25.00765117 58 22 C55.02534229 23.9295077 52.14497725 25.88893555 49.328125 28.046875 C47.89726562 29.13742188 47.89726562 29.13742188 46.4375 30.25 C45.52871094 30.95640625 44.61992187 31.6628125 43.68359375 32.390625 C40.78592263 34.1283841 39.31002689 34.35913493 36 34 C35.01 31.525 35.01 31.525 34 29 C29.15498104 32.0088204 24.84664444 34.71544795 22.80859375 40.21484375 C22.35666906 42.46930234 21.94185544 44.73155177 21.56640625 47 C20.64298387 51.89095438 18.55544033 54.49316718 15 57.9375 C13 59 13 59 10.75 58.6875 C10.1725 58.460625 9.595 58.23375 9 58 C9.50342802 52.27007382 11.83132463 48.06035518 14.5625 43.125 C14.98724609 42.34125 15.41199219 41.5575 15.84960938 40.75 C16.89210538 38.82899613 17.94232445 36.9126751 19 35 C17.68 34.34 16.36 33.68 15 33 C15 32.34 15 31.68 15 31 C13.80375 31.495 12.6075 31.99 11.375 32.5 C6.60640758 34.28927716 2.89036613 34.63012204 -2 33 C-2.99 33.495 -2.99 33.495 -4 34 C-6.33294775 34.04241723 -8.66702567 34.04092937 -11 34 C-15.28514576 34 -19.5128562 34.53581271 -23.7734375 34.9765625 C-27.08275755 35.00060114 -29.05654768 34.44416575 -32 33 C-32.495 33.495 -32.495 33.495 -33 34 C-35.33297433 34.04092937 -37.66705225 34.04241723 -40 34 C-39.62422289 27.86230717 -37.9580593 24.73036356 -34 20 C-33.34 20 -32.68 20 -32 20 C-32.60698743 24.12751449 -34.03810791 27.3321148 -36 31 C-32.54286092 28.8076679 -29.46709825 26.56970017 -26.4375 23.8125 C-23.71026928 21.42315627 -21.75061883 20.10716054 -18 20 C-17.34 20.33 -16.68 20.66 -16 21 C-16.33 22.65 -16.66 24.3 -17 26 C-18.32 26.33 -19.64 26.66 -21 27 C-21.33 26.34 -21.66 25.68 -22 25 C-24.54106009 27.20961747 -25.30621489 28.73988358 -26 32 C-17.94341766 28.8315022 -14.10311689 25.52562197 -10 18 C-9.13933372 16.47061459 -8.2772202 14.94204318 -7.4140625 13.4140625 C-4.91042994 8.96018106 -2.44517271 4.48620262 0 0 Z M21.3125 26.5 C20.549375 27.325 19.78625 28.15 19 29 C19.33 29.66 19.66 30.32 20 31 C21.7074998 29.71937515 23.37373596 28.38232443 25 27 C25 26.34 25 25.68 25 25 C25.66 24.67 26.32 24.34 27 24 C23.75434142 23.65944803 23.75434142 23.65944803 21.3125 26.5 Z M-7 25 C-7.33 25.66 -7.66 26.32 -8 27 C-7.01 26.67 -6.02 26.34 -5 26 C-5.66 25.67 -6.32 25.34 -7 25 Z M5.4375 26.3125 C3.67576677 28.0111602 3.67576677 28.0111602 4 31 C5.32 31 6.64 31 8 31 C8 29.02 8 27.04 8 25 C6.7875169 24.89280132 6.7875169 24.89280132 5.4375 26.3125 Z M36 25 C37 27 37 27 37 27 Z M18 43 C19 45 19 45 19 45 Z M45 44 C43.68 45.32 42.36 46.64 41 48 C41.33 48.66 41.66 49.32 42 50 C43.32 48.68 44.64 47.36 46 46 C45.67 45.34 45.34 44.68 45 44 Z M17 45 C16.30289269 46.28650706 15.61757124 47.57940665 14.9375 48.875 C14.55464844 49.59429687 14.17179687 50.31359375 13.77734375 51.0546875 C13.52082031 51.69664062 13.26429688 52.33859375 13 53 C13.33 53.66 13.66 54.32 14 55 C14.680625 53.906875 15.36125 52.81375 16.0625 51.6875 C16.44535156 51.07261719 16.82820313 50.45773438 17.22265625 49.82421875 C18.31112074 47.82866925 18.31112074 47.82866925 17 45 Z " fill="#303030" transform="translate(269,152)"/>
<path d="M0 0 C-1.43417039 3.26146363 -3.22345262 5.44397442 -5.6875 8 C-12.19810982 15.21156963 -17.80839781 23.03668632 -18 33 C-17.01 33.33 -16.02 33.66 -15 34 C-15.33 34.99 -15.66 35.98 -16 37 C-18.97 36.505 -18.97 36.505 -22 36 C-23.94513823 29.8403956 -21.47509977 25.57377119 -19 20 C-18.505 18.515 -18.505 18.515 -18 17 C-18.55985596 17.57556641 -19.11971191 18.15113281 -19.6965332 18.74414062 C-22.22737828 21.33718733 -24.76971646 23.91866162 -27.3125 26.5 C-28.63411133 27.85931641 -28.63411133 27.85931641 -29.98242188 29.24609375 C-31.25375977 30.53193359 -31.25375977 30.53193359 -32.55078125 31.84375 C-33.33106689 32.63974609 -34.11135254 33.43574219 -34.9152832 34.25585938 C-37 36 -37 36 -40 36 C-39.86722656 35.41992188 -39.73445313 34.83984375 -39.59765625 34.2421875 C-39.42105469 33.46101563 -39.24445313 32.67984375 -39.0625 31.875 C-38.88847656 31.10929687 -38.71445313 30.34359375 -38.53515625 29.5546875 C-37.94019145 26.71449055 -37.46084848 23.86473381 -37 21 C-37.65484375 21.65226562 -38.3096875 22.30453125 -38.984375 22.9765625 C-47.97876212 31.58983152 -56.43448838 37.70617348 -69.40625 37.6015625 C-72.7000534 36.83763822 -73.96513444 35.66687086 -76 33 C-76.07917598 28.64532127 -75.51827529 26.63344757 -72.75 23.25 C-67.89559189 19.27821155 -64.38901246 17.34226852 -58 17 C-55.0625 17.9375 -55.0625 17.9375 -53 19 C-53 20.32 -53 21.64 -53 23 C-53.99 23 -54.98 23 -56 23 C-56 22.34 -56 21.68 -56 21 C-61.70939788 20.54324817 -64.55127459 21.37894444 -69 25 C-71.33391203 27.78114056 -71.33391203 27.78114056 -70.625 30.6875 C-70.41875 31.450625 -70.2125 32.21375 -70 33 C-64.3069075 34.60574404 -60.19159912 33.47879357 -55 31 C-45.08857146 24.90346753 -33.60550236 14.78569037 -29.765625 3.61328125 C-29 2 -29 2 -26.25 0.9375 C-25.5075 0.958125 -24.765 0.97875 -24 1 C-24.47234984 4.89688616 -25.87011002 7.50220597 -27.87890625 10.828125 C-30.29977885 15.51803847 -33 21.66598775 -33 27 C-32.46826172 26.34257812 -32.46826172 26.34257812 -31.92578125 25.671875 C-10.37601626 0 -10.37601626 0 0 0 Z M-36 18 C-35 20 -35 20 -35 20 Z " fill="#2F2F2F" transform="translate(243,149)"/>
<path d="M0 0 C-0.33 1.32 -0.66 2.64 -1 4 C-2.65 4.33 -4.3 4.66 -6 5 C-6 3.68 -6 2.36 -6 1 C-4 0 -4 0 0 0 Z " fill="#313131" transform="translate(243,164)"/>
</svg>
